<svg width="90" height="83" viewBox="0 0 90 83" fill="none" xmlns="http://www.w3.org/2000/svg">
<g opacity="0.5" filter="url(#filter0_d_1_22)">
<path d="M4.30128 40.0363L54.6633 11.8477C54.8979 11.7258 55.1769 11.8978 55.1836 12.1542L55.564 26.6187L30.3197 40.7388C30.085 40.8607 30.0937 41.1903 30.3351 41.3247L56.3575 56.7929L56.736 71.1843C56.7427 71.4406 56.4724 71.5982 56.231 71.4637L4.31669 40.6222C4.09312 40.4699 4.08445 40.1403 4.30128 40.0363Z" fill="#FF6B00"/>
</g>
<g opacity="0.5" filter="url(#filter1_d_1_22)">
<path d="M85.3133 42.7283L34.9513 70.9168C34.7166 71.0388 34.4377 70.8667 34.4309 70.6104L34.0505 56.1458L59.2949 42.0258C59.5295 41.9039 59.5209 41.5743 59.2795 41.4399L33.257 25.9717L32.8786 11.5803C32.8718 11.324 33.1421 11.1664 33.3835 11.3009L85.2979 42.1424C85.5214 42.2947 85.5301 42.6243 85.3133 42.7283Z" fill="#FF6B00"/>
</g>
<defs>
<filter id="filter0_d_1_22" x="0.143715" y="11.8077" width="60.5924" height="67.7051" filterUnits="userSpaceOnUse" color-interpolation-filters="sRGB">
<feFlood flood-opacity="0" result="BackgroundImageFix"/>
<feColorMatrix in="SourceAlpha" type="matrix" values="0 0 0 0 0 0 0 0 0 0 0 0 0 0 0 0 0 0 127 0" result="hardAlpha"/>
<feOffset dy="4"/>
<feGaussianBlur stdDeviation="2"/>
<feComposite in2="hardAlpha" operator="out"/>
<feColorMatrix type="matrix" values="0 0 0 0 0 0 0 0 0 0 0 0 0 0 0 0 0 0 0.25 0"/>
<feBlend mode="normal" in2="BackgroundImageFix" result="effect1_dropShadow_1_22"/>
<feBlend mode="normal" in="SourceGraphic" in2="effect1_dropShadow_1_22" result="shape"/>
</filter>
<filter id="filter1_d_1_22" x="28.8784" y="11.2518" width="60.5924" height="67.7051" filterUnits="userSpaceOnUse" color-interpolation-filters="sRGB">
<feFlood flood-opacity="0" result="BackgroundImageFix"/>
<feColorMatrix in="SourceAlpha" type="matrix" values="0 0 0 0 0 0 0 0 0 0 0 0 0 0 0 0 0 0 127 0" result="hardAlpha"/>
<feOffset dy="4"/>
<feGaussianBlur stdDeviation="2"/>
<feComposite in2="hardAlpha" operator="out"/>
<feColorMatrix type="matrix" values="0 0 0 0 0 0 0 0 0 0 0 0 0 0 0 0 0 0 0.25 0"/>
<feBlend mode="normal" in2="BackgroundImageFix" result="effect1_dropShadow_1_22"/>
<feBlend mode="normal" in="SourceGraphic" in2="effect1_dropShadow_1_22" result="shape"/>
</filter>
</defs>
</svg>
